<svg xmlns="http://www.w3.org/2000/svg" xmlns:xlink="http://www.w3.org/1999/xlink" viewBox="0 0 550 111"><defs><style>.a{fill:none;}.b{fill:#eee;}.c{fill-rule:evenodd;}.d{clip-path:url(#a);}.e{fill:#05a;}.f{fill:#eee;}.g{clip-path:url(#b);}.h{fill:#d13;}</style><clipPath id="a"><rect class="a" x="12" y="12" width="26" height="52"/></clipPath><clipPath id="b"><polygon class="a" points="25 38 25 64 12 64 25 38 12 38 12 12 25 38 25 12 38 12 25 38 38 38 38 64 25 38"/></clipPath></defs><rect class="b" width="550" height="111" rx="8"/><path class="b" d="M8,0H45a0,0,0,0,1,0,0V111a0,0,0,0,1,0,0H8a8,8,0,0,1-8-8V8A8,8,0,0,1,8,0Z"/><path d="M278.52,104H278l-.49-2.14L277,104h-.57l-.69-3h.52l.48,2.1.48-2.1h.53l.48,2.11.48-2.11h.51Z"/><path d="M279.83,101.52a.29.29,0,0,1-.3-.29.29.29,0,0,1,.3-.29.29.29,0,0,1,.28.29A.28.28,0,0,1,279.83,101.52Zm-.25,2.44V101.8h.49V104Z"/><path d="M282,104l-.66-1-.24.25V104h-.48v-3h.48v1.63l.81-.83h.64l-.86.86.88,1.3Z"/><path d="M283.15,101.52a.28.28,0,0,1-.29-.29.29.29,0,1,1,.58,0A.28.28,0,0,1,283.15,101.52Zm-.24,2.44V101.8h.48V104Z"/><path d="M285,104a.72.72,0,0,1-.54-.22v.87h-.49V101.8h.49V102a.73.73,0,0,1,.54-.21,1,1,0,0,1,.95,1.12A1,1,0,0,1,285,104Zm-.1-1.81a.4.4,0,0,0-.44.39v.56a.42.42,0,0,0,.43.39c.37,0,.56-.31.56-.69A.59.59,0,0,0,284.85,102.21Z"/><path d="M288.17,103.07h-1.45a.52.52,0,0,0,.54.52.7.7,0,0,0,.51-.2l.27.33a1.13,1.13,0,0,1-.78.3,1,1,0,0,1-1.06-1.15,1,1,0,0,1,1-1.12c.7,0,1,.54,1,1.23Zm-1-.89a.49.49,0,0,0-.48.51h1A.48.48,0,0,0,287.19,102.18Z"/><path d="M290,104v-.14a.7.7,0,0,1-.52.2,1.06,1.06,0,0,1-1-1.11c0-.6.31-1.16,1-1.16a.77.77,0,0,1,.52.18V101h.49v3Zm0-1.36a.44.44,0,0,0-.45-.39c-.37,0-.56.3-.56.69a.61.61,0,0,0,.55.66c.16,0,.46-.12.46-.37Z"/><path d="M291.24,101.52a.28.28,0,0,1-.29-.29.29.29,0,0,1,.58,0A.28.28,0,0,1,291.24,101.52ZM291,104V101.8h.48V104Z"/><path d="M293.66,104a.44.44,0,0,1-.36-.23.87.87,0,0,1-.61.21.68.68,0,0,1-.77-.65.73.73,0,0,1,.8-.72c.12,0,.35,0,.48,0v-.09c0-.22-.1-.33-.34-.33a1.17,1.17,0,0,0-.63.17l-.18-.39a1.64,1.64,0,0,1,.84-.23.71.71,0,0,1,.79.81v.82a.28.28,0,0,0,.2.3ZM293.2,103l-.34,0c-.2,0-.45,0-.45.32a.34.34,0,0,0,.37.3c.28,0,.42-.12.42-.29Z"/><path d="M296.65,104a1.07,1.07,0,0,1-1.16-1.11V101H296v1.91a.64.64,0,1,0,1.27,0V101h.52v1.91A1.08,1.08,0,0,1,296.65,104Z"/><path d="M300.13,104l-.85-1.38-.38.43V104h-.51v-3h.51v1.31L300,101h.63l-1,1.21,1.1,1.75Z"/><path d="M304.54,104a1.54,1.54,0,0,1-1.19-.54l.4-.33a1.08,1.08,0,0,0,.79.42c.39,0,.62-.14.62-.38s-.23-.39-.47-.44l-.43-.1c-.41-.11-.82-.31-.82-.86s.4-.84,1.07-.84a1.27,1.27,0,0,1,1.08.45l-.39.33a.8.8,0,0,0-.69-.33c-.3,0-.56.13-.56.36s.19.33.51.41l.38.1c.58.14.84.42.84.89S305.28,104,304.54,104Z"/><path d="M306.19,104v-3H308v.45H306.7v.79h1.23v.45H306.7v.81h1.43V104Z"/><path d="M309,104v-2.12h-.49v-.39a.65.65,0,0,0,.41-.11.46.46,0,0,0,.16-.34h.43v3Z"/><path d="M312.54,104c-.79,0-1.17-.79-1.17-1.55s.37-1.53,1.15-1.53,1.15.77,1.15,1.53S313.32,104,312.54,104Zm0-2.62c-.45,0-.64.59-.64,1.07s.12,1.09.66,1.09.62-.66.62-1.09S313,101.4,312.52,101.4Z"/><path d="M316.15,104l-1.46-2.11V104h-.51v-3h.54l1.45,2.11V101h.51v3Z"/><path d="M317.16,104v-.47l1.4-2H317.2V101h2v.46l-1.39,2h1.43V104Z"/><path d="M518.26,104H517v-3h1.21a.75.75,0,0,1,.83.75.64.64,0,0,1-.34.6.69.69,0,0,1,.5.75A.83.83,0,0,1,518.26,104Zm-.14-2.51h-.66v.73h.67a.34.34,0,0,0,.36-.37A.34.34,0,0,0,518.12,101.45Zm0,1.13h-.69v.92h.7a.44.44,0,0,0,.49-.45A.47.47,0,0,0,518.15,102.58Z"/><path d="M520.67,104a1.54,1.54,0,0,1-1.2-.54l.4-.33a1.08,1.08,0,0,0,.79.42c.39,0,.63-.14.63-.38s-.24-.39-.47-.44l-.43-.1c-.42-.11-.83-.31-.83-.86s.4-.84,1.08-.84a1.3,1.3,0,0,1,1.08.45l-.4.33a.79.79,0,0,0-.68-.33c-.3,0-.57.13-.57.36s.19.33.51.41l.38.1c.58.14.84.42.84.89S521.4,104,520.67,104Z"/><path d="M525.34,104l-.17-.55H524l-.18.55h-.51l1-3h.63l1,3Zm-.77-2.42-.45,1.43H525Z"/><path d="M527.36,104a1.07,1.07,0,0,1-1.15-1.11V101h.53v1.91a.64.64,0,1,0,1.27,0V101h.52v1.91A1.08,1.08,0,0,1,527.36,104Z"/><path d="M530.76,104v-2.12h-.49v-.39a.68.68,0,0,0,.42-.11.45.45,0,0,0,.15-.34h.43v3Z"/><path d="M533.75,103.41V104h-.51v-.55h-1.46v-.5l1.35-1.91h.62v2h.35v.46ZM532.3,103h1V101.6Z"/><path d="M535.51,104a1,1,0,0,1-1-.66l.47-.19a.57.57,0,0,0,.52.39A.55.55,0,0,0,536,103a.57.57,0,0,0-.57-.61.54.54,0,0,0-.49.28l-.49-.14.21-1.48h1.69v.45h-1.23L535,102a1,1,0,0,1,.48-.12,1,1,0,0,1,1,1A1,1,0,0,1,535.51,104Z"/><path d="M538.85,103.07h-1.46a.52.52,0,0,0,.54.52.69.69,0,0,0,.51-.2l.27.33a1.13,1.13,0,0,1-.78.3,1,1,0,0,1-1.06-1.15,1,1,0,0,1,1-1.12c.7,0,1,.54,1,1.23Zm-1-.89a.5.5,0,0,0-.49.51h1A.47.47,0,0,0,537.87,102.18Z"/><path class="c" d="M35,75.49v1A1.49,1.49,0,0,1,33.5,78H31V74H33.5A1.49,1.49,0,0,1,35,75.49m0,8v1A1.49,1.49,0,0,1,33.5,86H31V82H33.5A1.49,1.49,0,0,1,35,83.5ZM27,70V90h6.5A5.51,5.51,0,0,0,39,84.52v-1A5.44,5.44,0,0,0,37.72,80,5.44,5.44,0,0,0,39,76.49v-1A5.51,5.51,0,0,0,33.5,70Zm-4,6v1H19V76a2,2,0,1,0-4,0v8a2,2,0,1,0,4,0V83H17V79h6v5a6,6,0,0,1-12,0V76a6,6,0,0,1,12,0Z"/><path d="M38,12V64H12V12H38m1-1H11V65H39V11Z"/><g class="d"><path class="e" d="M38,12H12V64H38Z"/><path d="M38,12,12,64m26,0L12,12"/><polygon class="f" points="9.67 62.84 22.09 38 9.67 13.16 14.32 10.84 25 32.19 35.67 10.84 40.33 13.16 27.91 38 40.33 62.84 35.67 65.16 25 43.81 14.32 65.16 9.67 62.84"/><g class="g"><path d="M38,12,12,64m26,0L12,12"/><polygon class="h" points="10.45 63.23 23.06 38 10.45 12.78 13.55 11.22 25 34.12 36.45 11.22 39.55 12.78 26.94 38 39.55 63.23 36.45 64.78 25 41.88 13.55 64.78 10.45 63.23"/></g><path d="M38,38H12M25,12V64"/><polygon class="f" points="12 42.33 12 33.67 20.67 33.67 20.67 12 29.33 12 29.33 33.67 38 33.67 38 42.33 29.33 42.33 29.33 64 20.67 64 20.67 42.33 12 42.33"/><path d="M38,38H12M25,12V64"/><polygon class="h" points="12 40.6 12 35.4 22.4 35.4 22.4 12 27.6 12 27.6 35.4 38 35.4 38 40.6 27.6 40.6 27.6 64 22.4 64 22.4 40.6 12 40.6"/></g><path d="M95,76.4V24.6H91V11h32a17.23,17.23,0,0,1,9,2.45A18.68,18.68,0,0,1,138.55,20,17.23,17.23,0,0,1,141,29v9.2a15.57,15.57,0,0,1-1.75,7.35,10,10,0,0,1-5.05,4.75,11.45,11.45,0,0,1,5.05,5.15A16,16,0,0,1,141,62.8V72a17.23,17.23,0,0,1-2.45,9A18.68,18.68,0,0,1,132,87.55,17.23,17.23,0,0,1,123,90H91V76.4Zm32-39.7V31.6a7,7,0,0,0-1.8-5.2,7,7,0,0,0-5.2-1.8H109V43.7h11Q127,43.7,127,36.7Zm-1.8,37.9a7,7,0,0,0,1.8-5.2V64.3a6.3,6.3,0,0,0-7-7H109V76.4h11A7,7,0,0,0,125.2,74.6Z"/><path d="M156,76.4V24.6h-4V11h32a17.29,17.29,0,0,1,9,2.45A18.68,18.68,0,0,1,199.55,20,17.23,17.23,0,0,1,202,29V72a17.23,17.23,0,0,1-2.45,9A18.68,18.68,0,0,1,193,87.55,17.29,17.29,0,0,1,184,90H152V76.4Zm30.2-1.8a7,7,0,0,0,1.8-5.2V31.6a7,7,0,0,0-1.8-5.2,7.05,7.05,0,0,0-5.2-1.8H170V76.4h11A7.05,7.05,0,0,0,186.2,74.6Z"/><path d="M222.25,88a18.38,18.38,0,0,1-6.3-5.4,15.2,15.2,0,0,1-2.95-7l13.9-3.6q1,4.5,6.5,4.5H242a6.3,6.3,0,0,0,7-7V62.3a6.3,6.3,0,0,0-7-7h-9.6c-3.14,0-5.1,1.2-5.9,3.6L213,54.7,220.4,11h41.3V24.6H232.2l-2.9,17.1H245a17.29,17.29,0,0,1,9,2.45,18.76,18.76,0,0,1,6.55,6.55,17.23,17.23,0,0,1,2.45,9V72a17.23,17.23,0,0,1-2.45,9A18.76,18.76,0,0,1,254,87.55,17.29,17.29,0,0,1,245,90H230.6A17.43,17.43,0,0,1,222.25,88Z"/><path d="M274,11h14V90H274Z"/><path d="M341.1,87.6a18.83,18.83,0,0,1-6.5-6.15A15.53,15.53,0,0,1,332,73.8l14-3.6a5.77,5.77,0,0,0,1.85,4.55A7.46,7.46,0,0,0,353,76.4h8a6.3,6.3,0,0,0,7-7V66.8a6.87,6.87,0,0,0-1-4,7.79,7.79,0,0,0-3.5-2.4L344,52.6a19.92,19.92,0,0,1-8.5-6.55A15.26,15.26,0,0,1,332,36.6V29a17.14,17.14,0,0,1,2.45-9A18.6,18.6,0,0,1,341,13.45,17.23,17.23,0,0,1,350,11h14a17.33,17.33,0,0,1,8.9,2.4,18.92,18.92,0,0,1,6.5,6.15A15.63,15.63,0,0,1,382,27.2l-14,3.6a5.8,5.8,0,0,0-1.85-4.55A7.48,7.48,0,0,0,361,24.6h-8a7,7,0,0,0-5.2,1.8,7,7,0,0,0-1.8,5.2v2.6a6.79,6.79,0,0,0,1,4,7.68,7.68,0,0,0,3.5,2.4L370,48.4A20,20,0,0,1,378.5,55,15.32,15.32,0,0,1,382,64.4V72a17.23,17.23,0,0,1-2.45,9A18.76,18.76,0,0,1,373,87.55,17.29,17.29,0,0,1,364,90H350A17.3,17.3,0,0,1,341.1,87.6Z"/><path d="M443,90H429V48.2L418,77.8,407,48.2V90H393V11h13l12,33.6L430,11h13Z"/><path d="M500.84,50.75a14.56,14.56,0,0,1-9.15,6L504,90H489L477,57.3h-9V90H454V11h32a17.23,17.23,0,0,1,9,2.45A18.6,18.6,0,0,1,501.54,20,17.14,17.14,0,0,1,504,29V39.3A20,20,0,0,1,500.84,50.75ZM483,43.7a7,7,0,0,0,5.2-1.8,7,7,0,0,0,1.8-5.2V31.6a7,7,0,0,0-1.8-5.2,7,7,0,0,0-5.2-1.8H468V43.7Z"/></svg>